# xmcd
#
# Track frame offsets: 
#        150
#        5166
#        10608
#        18890
#        28342
#        36767
#        42673
#        49648
#        57267
#        64835
#        70718
#        75074
#        88254
#        91791
#        100523
#        111418
#        122113
#        127262
#        134465
#        143659
#        151955
#        158413
#        165551
#        174749
#        181322
#        188347
#        195925
#        201143
#        206914
#        212008
#
# Disc length: 2911 seconds
#
# Revision: 1
# Processed by: cddbd v1.5.2PL0 Copyright (c) Steve Scherf et al.
# Submitted via: ExactAudioCopy v1.0b3
#
DISCID=900b5d1e
DTITLE=Various Artist - National Anthems CD1
DYEAR=2005
DGENRE=Folklore
TTITLE0=Albania
TTITLE1=Andorra
TTITLE2=Australia "Advanced Australia Fair"
TTITLE3=Austria
TTITLE4=Belgium " La Brabanconne"
TTITLE5=Bolivia
TTITLE6=Canada "O Canada!"
TTITLE7=Central Afrika
TTITLE8=Chile
TTITLE9=Cuba
TTITLE10=Denmark
TTITLE11=Ecuador
TTITLE12=Egypt
TTITLE13=Finland "Maamme"
TTITLE14=France "La Marseillaise"
TTITLE15=Germany
TTITLE16=Ghana
TTITLE17=Great Britain "God save the Queen"
TTITLE18=Greece
TTITLE19=Hungary
TTITLE20=Iceland
TTITLE21=Iran
TTITLE22=Ireland "Amthran na bh Fiann"
TTITLE23=Isreal "Hatiqvah"
TTITLE24=Italy "Inno di Mameli"
TTITLE25=Japan
TTITLE26=Kenya
TTITLE27=Luxembourg "Ons hemecht"
TTITLE28=Madagaskar
TTITLE29=Malta
EXTD=National Anthems from 57 countries on both CD's
EXTT0=
EXTT1=
EXTT2=
EXTT3=
EXTT4=
EXTT5=
EXTT6=
EXTT7=
EXTT8=
EXTT9=
EXTT10=
EXTT11=
EXTT12=
EXTT13=
EXTT14=
EXTT15=
EXTT16=
EXTT17=
EXTT18=
EXTT19=
EXTT20=
EXTT21=
EXTT22=
EXTT23=
EXTT24=
EXTT25=
EXTT26=
EXTT27=
EXTT28=
EXTT29=
PLAYORDER=
